<?xml version="1.0" encoding="UTF-8" standalone="no"?>
<svg
   xmlns:dc="http://purl.org/dc/elements/1.1/"
   xmlns:cc="http://creativecommons.org/ns#"
   xmlns:rdf="http://www.w3.org/1999/02/22-rdf-syntax-ns#"
   xmlns:svg="http://www.w3.org/2000/svg"
   xmlns="http://www.w3.org/2000/svg"
   xmlns:sodipodi="http://sodipodi.sourceforge.net/DTD/sodipodi-0.dtd"
   xmlns:inkscape="http://www.inkscape.org/namespaces/inkscape"
   enable-background="new 0 0 56.693 56.693"
   height="300"
   id="Layer_1"
   version="1.1"
   viewBox="0 0 300 300"
   width="300"
   xml:space="preserve"
   sodipodi:docname="twitter.svg"
   inkscape:version="0.92.4 5da689c313, 2019-01-14"><metadata
     id="metadata9"><rdf:RDF><cc:Work
         rdf:about=""><dc:format>image/svg+xml</dc:format><dc:type
           rdf:resource="http://purl.org/dc/dcmitype/StillImage" /><dc:title></dc:title></cc:Work></rdf:RDF></metadata><defs
     id="defs7" /><sodipodi:namedview
     pagecolor="#ffffff"
     bordercolor="#666666"
     borderopacity="1"
     objecttolerance="10"
     gridtolerance="10"
     guidetolerance="10"
     inkscape:pageopacity="0"
     inkscape:pageshadow="2"
     inkscape:window-width="1920"
     inkscape:window-height="1028"
     id="namedview5"
     showgrid="false"
     inkscape:zoom="2.0813857"
     inkscape:cx="52.076168"
     inkscape:cy="173.86874"
     inkscape:window-x="0"
     inkscape:window-y="0"
     inkscape:window-maximized="1"
     inkscape:current-layer="Layer_1" /><path
     d="m 149.42613,3.8223614 c -80.734892,0 -146.1835789,65.4605566 -146.1835789,146.1835786 0,80.73488 65.4486869,146.1717 146.1835789,146.1717 80.73488,0 146.1717,-65.43682 146.1717,-146.1717 0,-80.723022 -65.44275,-146.1835786 -146.1717,-146.1835786 z M 223.0611,120.53177 c 0.0771,1.57907 0.10691,3.1641 0.10691,4.76692 0,48.68432 -37.05493,104.81287 -104.81288,104.81287 -20.801107,0 -40.171542,-6.09666 -56.472867,-16.54471 2.885085,0.33836 5.811725,0.51053 8.785856,0.51053 17.263018,0 33.148801,-5.88889 45.751761,-15.76705 -16.11731,-0.30275 -29.717575,-10.95858 -34.407323,-25.59177 2.243955,0.43928 4.55321,0.65895 6.927767,0.65895 3.359996,0 6.613136,-0.43931 9.705994,-1.2882 -16.859343,-3.38375 -29.557278,-18.28408 -29.557278,-36.117 0,-0.16029 0,-0.31463 0.0059,-0.4749 4.962824,2.76041 10.643947,4.41666 16.687191,4.61256 -9.890024,-6.61907 -16.390369,-17.8804 -16.390369,-30.66738 0,-6.74967 1.816535,-13.083806 4.986566,-18.521534 18.171285,22.285204 45.318392,36.954024 75.938292,38.485624 -0.62926,-2.68919 -0.95577,-5.50899 -0.95577,-8.39407 0,-20.33806 16.49129,-36.835287 36.84125,-36.835287 10.59645,0 20.1659,4.47604 26.88589,11.629371 8.39405,-1.644368 16.27757,-4.719418 23.3953,-8.940186 -2.76042,8.607756 -8.59589,15.826412 -16.20633,20.379622 7.46204,-0.89046 14.56195,-2.87321 21.16321,-5.79984 -4.92719,7.40267 -11.17821,13.89114 -18.37905,19.08548 z"
     id="path2"
     style="fill:#262829;fill-opacity:1;stroke-width:5.93638945"
     inkscape:connector-curvature="0" /></svg>