<svg xmlns="http://www.w3.org/2000/svg" width="41.387" height="41.387" viewBox="0 0 10.95 10.95">
  <g stroke="#262829" stroke-linecap="round" stroke-linejoin="round">
    <path fill="#fff" fill-opacity=".972" stroke-width=".279" d="M.371.371H10.58V10.58H.371z"/>
    <path fill="none" stroke-width=".529" d="M6.855 6.963a2.028 6.042 45.646 0 1-5.712 2.723 2.028 6.042 45.646 0 1 2.953-5.699 2.028 6.042 45.646 0 1 5.712-2.723 2.028 6.042 45.646 0 1-2.953 5.7z"/>
    <path fill="none" stroke-width=".397" d="M5.475 6.948a4.391 1.473 0 0 1-4.39-1.473 4.391 1.473 0 0 1 4.39-1.473 4.391 1.473 0 0 1 4.391 1.473 4.391 1.473 0 0 1-4.39 1.473z"/>
    <path fill="#5ae2fb" stroke-width=".5" d="M6.1 5.475a.625.625 0 0 1-.625.625.625.625 0 0 1-.625-.625.625.625 0 0 1 .625-.625.625.625 0 0 1 .625.625z"/>
    <path fill="none" stroke-width=".323" d="M4.374 6.679a4.855 1.63 44.824 0 0 4.56 2.202 4.855 1.63 44.824 0 0-2.357-4.61 4.855 1.63 44.824 0 0-4.56-2.202 4.855 1.63 44.824 0 0 2.357 4.61z"/>
    <path fill="#6ae2fb" stroke-width=".273" d="M5.486 3.023a.34.34 0 0 1-.341.34.34.34 0 0 1-.34-.34.34.34 0 0 1 .34-.341.34.34 0 0 1 .34.34z"/>
    <path fill="#6ae2fb" stroke-width=".299" d="M6.104 7.98a.374.374 0 0 1-.374.375.374.374 0 0 1-.375-.375.374.374 0 0 1 .375-.374.374.374 0 0 1 .374.374z"/>
    <path fill="#6ae2fb" stroke-width=".259" d="M8.275 5.805a.324.324 0 0 1-.324.325.324.324 0 0 1-.324-.325.324.324 0 0 1 .324-.324.324.324 0 0 1 .324.324z"/>
    <path fill="#6ae2fb" stroke-width=".219" d="M4.74 6.905a.274.274 0 0 1-.273.274.274.274 0 0 1-.274-.274.274.274 0 0 1 .274-.274.274.274 0 0 1 .274.274zM6.565 4.005a.274.274 0 0 1-.274.274.274.274 0 0 1-.274-.274.274.274 0 0 1 .274-.274.274.274 0 0 1 .274.274z"/>
    <path fill="#6ae2fb" stroke-width=".259" d="M2.826 4.379a.324.324 0 0 1-.324.324.324.324 0 0 1-.324-.324.324.324 0 0 1 .324-.324.324.324 0 0 1 .324.324z"/>
  </g>
</svg>
