<svg xmlns="http://www.w3.org/2000/svg" width="41.387" height="41.387" viewBox="0 0 10.95 10.95">
  <g stroke="#262829" stroke-linecap="round" stroke-linejoin="round">
    <path fill="#d29872" stroke-width=".277" d="M.404.404h10.144v10.144H.404z"/>
    <path fill="#987864" stroke-width=".72" d="M3.09 2.014c.014-.107-1.397-.418-1.497-.377-.101.04-.454 2.585-.369 2.652.085.067 1.85-2.168 1.865-2.275z"/>
    <path fill="#987864" stroke-width=".265" d="M3.546 283.255c.16.279-.723 1.79-1.045 1.79-.322-.003-1.19-1.523-1.027-1.8.162-.279 1.913-.27 2.072.01z" transform="matrix(-1.23095 -1.6455 -2.10774 .961 606.947 -261.366)"/>
    <path fill="#987864" stroke-width=".72" d="M7.861 1.864c-.015-.107 1.397-.418 1.497-.377.1.04.454 2.586.368 2.652-.085.067-1.85-2.167-1.865-2.275z"/>
    <path fill="#262829" stroke-width=".255" d="M2.977 4.15a.74.724 0 0 0-.74.723.74.724 0 0 0 .74.724.74.724 0 0 0 .74-.724.74.724 0 0 0-.023-.177.408.408 0 0 1-.185.045.408.408 0 0 1-.408-.408.408.408 0 0 1 .036-.166.74.724 0 0 0-.16-.018zM7.92 3.955a.74.724 0 0 0-.74.724.74.724 0 0 0 .74.724.74.724 0 0 0 .74-.724.74.724 0 0 0-.024-.178.408.408 0 0 1-.185.045.408.408 0 0 1-.407-.408.408.408 0 0 1 .035-.166.74.724 0 0 0-.16-.017z"/>
    <path fill="#262829" stroke-width=".265" d="M3.546 283.255c.16.279-.723 1.79-1.045 1.79-.322-.003-1.19-1.523-1.027-1.8.162-.279 1.913-.27 2.072.01z" transform="matrix(-.40644 .3785 -.69594 -.22105 204.099 67.831)"/>
    <path fill="#ff9d8a" stroke-width=".238" d="M4.63 7.854a.943 1.692 0 0 0-.005.164.943 1.692 0 0 0 .943 1.693.943 1.692 0 0 0 .944-1.693.943 1.692 0 0 0-.006-.164z"/>
  </g>
</svg>
