<?xml version="1.0" encoding="UTF-8" standalone="no"?>
<svg
   xmlns:dc="http://purl.org/dc/elements/1.1/"
   xmlns:cc="http://creativecommons.org/ns#"
   xmlns:rdf="http://www.w3.org/1999/02/22-rdf-syntax-ns#"
   xmlns:svg="http://www.w3.org/2000/svg"
   xmlns="http://www.w3.org/2000/svg"
   xmlns:xlink="http://www.w3.org/1999/xlink"
   xmlns:sodipodi="http://sodipodi.sourceforge.net/DTD/sodipodi-0.dtd"
   xmlns:inkscape="http://www.inkscape.org/namespaces/inkscape"
   width="300"
   height="300"
   viewBox="0 0 300 300"
   version="1.1"
   id="svg4"
   sodipodi:docname="Octicons-mark-github2.svg"
   style="fill:none"
   inkscape:version="0.92.3 (2405546, 2018-03-11)">
  <metadata
     id="metadata10">
    <rdf:RDF>
      <cc:Work
         rdf:about="">
        <dc:format>image/svg+xml</dc:format>
        <dc:type
           rdf:resource="http://purl.org/dc/dcmitype/StillImage" />
        <dc:title />
      </cc:Work>
    </rdf:RDF>
  </metadata>
  <defs
     id="defs8">
    <linearGradient
       inkscape:collect="always"
       id="linearGradient1715">
      <stop
         style="stop-color:#31fffe;stop-opacity:1"
         offset="0"
         id="stop1711" />
      <stop
         style="stop-color:#ff57ff;stop-opacity:1"
         offset="1"
         id="stop1713" />
    </linearGradient>
    <linearGradient
       inkscape:collect="always"
       xlink:href="#linearGradient1715"
       id="linearGradient1717"
       x1="-82.538155"
       y1="363.74396"
       x2="384.12671"
       y2="-69.376366"
       gradientUnits="userSpaceOnUse" />
  </defs>
  <sodipodi:namedview
     pagecolor="#ffffff"
     bordercolor="#666666"
     borderopacity="1"
     objecttolerance="10"
     gridtolerance="10"
     guidetolerance="10"
     inkscape:pageopacity="0"
     inkscape:pageshadow="2"
     inkscape:window-width="1002"
     inkscape:window-height="897"
     id="namedview6"
     showgrid="false"
     inkscape:zoom="0.921875"
     inkscape:cx="186.73887"
     inkscape:cy="88.7429"
     inkscape:window-x="356"
     inkscape:window-y="145"
     inkscape:window-maximized="0"
     inkscape:current-layer="svg4" />
  <path
     d="m 150,6.1064479 c -81.512089,0 -147.5331774,66.0210871 -147.5331774,147.5331621 0,65.28344 42.2313674,120.42395 100.8758274,139.97211 7.37664,1.29091 10.14289,-3.13511 10.14289,-7.00783 0,-3.50392 -0.18443,-15.12215 -0.18443,-27.47806 -37.067701,6.82341 -46.657361,-9.03641 -49.608017,-17.33514 -1.659757,-4.24157 -8.851995,-17.33517 -15.122154,-20.83906 -5.163662,-2.76626 -12.540317,-9.58967 -0.184416,-9.77409 11.618236,-0.18441 19.916972,10.69616 22.683224,15.12216 13.277983,22.3144 34.485883,16.04423 42.969043,12.17149 1.29092,-9.58966 5.16367,-16.04424 9.40524,-19.73257 -32.826138,-3.68833 -67.127604,-16.41306 -67.127604,-72.84452 0,-16.04421 5.71691,-29.32221 15.122155,-39.64954 -1.475331,-3.68831 -6.638992,-18.810463 1.475327,-39.096271 0,0 12.355902,-3.872737 40.571632,15.122152 11.80266,-3.31949 24.34297,-4.979243 36.8833,-4.979243 12.54031,0 25.08064,1.659753 36.88329,4.979243 28.21572,-19.179306 40.57162,-15.122152 40.57162,-15.122152 8.11432,20.285808 2.95065,35.407961 1.47533,39.096271 9.40524,10.32733 15.12216,23.42091 15.12216,39.64954 0,56.61588 -34.48589,69.15619 -67.31202,72.84452 5.34807,4.61041 9.95849,13.46241 9.95849,27.29363 0,19.73257 -0.18442,35.5924 -0.18442,40.57164 0,3.87272 2.76626,8.48315 10.14289,7.00783 58.27563,-19.54816 100.507,-74.8731 100.507,-139.97211 C 297.53318,72.127535 231.51208,6.1064479 150,6.1064479 Z"
     id="path2"
     style="clip-rule:evenodd;fill:url(#linearGradient1717);fill-opacity:1;fill-rule:evenodd;stroke-width:18.44164848"
     inkscape:connector-curvature="0" />
</svg>
