<svg xmlns="http://www.w3.org/2000/svg" width="39.357" height="34.527" viewBox="0 0 10.413 9.135">
  <path fill="#ff5f79" fill-opacity=".923" stroke="#262829" stroke-linecap="round" stroke-linejoin="round" stroke-width=".32" d="M6.979.425c-.07 0-.14 0-.21.006-.558.033-1.137.468-1.595.789C4.717.899 4.202.465 3.644.43a3.056 3.056 0 0 0-1.617.355c-.493.264-.91.666-1.19 1.15a3.055 3.055 0 0 0-.411 1.603c.014.555.18 1.097.411 1.602A6.501 6.501 0 0 0 5.22 8.71a6.513 6.513 0 0 0 4.357-3.57c.23-.505.397-1.047.412-1.602a3.055 3.055 0 0 0-.41-1.604A3.055 3.055 0 0 0 8.385.785 3.058 3.058 0 0 0 6.98.425z"/>
</svg>
