<svg xmlns="http://www.w3.org/2000/svg" width="89.472" height="89.472" viewBox="0 0 23.673 23.673">
  <g stroke="#262829">
    <path fill-opacity=".011" stroke-linejoin="round" stroke-width=".897" d="M22.96.713L16.999 22.96 13.16 10.625.713 6.675z" paint-order="markers fill stroke"/>
    <path fill="none" stroke-linecap="round" stroke-linejoin="round" stroke-width=".538" d="M17.241 6.352s-2.975 2.712-4.08 4.273"/>
    <path fill="none" stroke-width=".794" d="M2.882 10.727a.87.87 0 0 1-.378.803c-.105.071-.225.118-.33.19a.865.865 0 0 0-.335.44.865.865 0 0 0 .004.551M8.998 13.594a.87.87 0 0 1-.378.803c-.105.071-.225.118-.33.19a.865.865 0 0 0-.334.44.865.865 0 0 0 .003.551M12.59 19.689a.87.87 0 0 1-.379.803c-.105.071-.225.118-.33.19a.865.865 0 0 0-.335.439.865.865 0 0 0 .004.552"/>
  </g>
</svg>
